<svg width="16" height="16" viewBox="0 0 16 16" fill="none" xmlns="http://www.w3.org/2000/svg">
<path d="M7.53317 12.8667C7.41095 12.7445 7.34695 12.5889 7.34117 12.4C7.3354 12.2111 7.39384 12.0556 7.51651 11.9333L10.7832 8.66668H3.33317C3.14428 8.66668 2.98584 8.60268 2.85784 8.47468C2.72984 8.34668 2.66606 8.18846 2.66651 8.00001C2.66651 7.81112 2.73051 7.65268 2.85851 7.52468C2.98651 7.39668 3.14473 7.3329 3.33317 7.33335H10.7832L7.51651 4.06668C7.39428 3.94446 7.33584 3.7889 7.34117 3.60001C7.34651 3.41112 7.41051 3.25557 7.53317 3.13335C7.6554 3.01112 7.81095 2.95001 7.99984 2.95001C8.18873 2.95001 8.34428 3.01112 8.46651 3.13335L12.8665 7.53335C12.9332 7.5889 12.9805 7.65846 13.0085 7.74201C13.0365 7.82557 13.0503 7.91157 13.0498 8.00001C13.0498 8.0889 13.0361 8.17223 13.0085 8.25001C12.981 8.32779 12.9336 8.40001 12.8665 8.46668L8.46651 12.8667C8.34428 12.9889 8.18873 13.05 7.99984 13.05C7.81095 13.05 7.6554 12.9889 7.53317 12.8667Z" fill="#FFAA05"/>
</svg>
