<svg width="16" height="16" viewBox="0 0 16 16" fill="none" xmlns="http://www.w3.org/2000/svg">
<path d="M7.53342 12.8667C7.41119 12.7445 7.34719 12.5889 7.34142 12.4C7.33564 12.2111 7.39408 12.0556 7.51675 11.9333L10.7834 8.66668H3.33342C3.14453 8.66668 2.98608 8.60268 2.85808 8.47468C2.73008 8.34668 2.66631 8.18846 2.66675 8.00001C2.66675 7.81112 2.73075 7.65268 2.85875 7.52468C2.98675 7.39668 3.14497 7.3329 3.33342 7.33335H10.7834L7.51675 4.06668C7.39453 3.94446 7.33608 3.7889 7.34142 3.60001C7.34675 3.41112 7.41075 3.25557 7.53342 3.13335C7.65564 3.01112 7.8112 2.95001 8.00008 2.95001C8.18897 2.95001 8.34453 3.01112 8.46675 3.13335L12.8668 7.53335C12.9334 7.5889 12.9808 7.65846 13.0088 7.74201C13.0368 7.82557 13.0505 7.91157 13.0501 8.00001C13.0501 8.0889 13.0363 8.17223 13.0088 8.25001C12.9812 8.32779 12.9339 8.40001 12.8668 8.46668L8.46675 12.8667C8.34453 12.9889 8.18897 13.05 8.00008 13.05C7.8112 13.05 7.65564 12.9889 7.53342 12.8667Z" fill="#FFAA05"/>
</svg>
